<mxfile host="app.diagrams.net" modified="2021-04-23T12:13:56.432Z" agent="5.0 (Windows NT 10.0; Win64; x64) AppleWebKit/537.36 (KHTML, like Gecko) Chrome/90.0.4430.85 Safari/537.36" etag="AIWLWNMb59lN8TlGjb29" version="14.6.5" type="github">
  <diagram name="Page-1" id="12e1b939-464a-85fe-373e-61e167be1490">
    <mxGraphModel dx="1958" dy="996" grid="1" gridSize="10" guides="1" tooltips="1" connect="1" arrows="1" fold="1" page="1" pageScale="1.5" pageWidth="2000" pageHeight="2000" background="#ffffff" math="0" shadow="0">
      <root>
        <mxCell id="0" />
        <mxCell id="1" parent="0" />
        <mxCell id="Ep_Ha3QmBGwPROYHMwhs-52" style="edgeStyle=none;rounded=0;orthogonalLoop=1;jettySize=auto;html=1;exitX=0.5;exitY=0;exitDx=0;exitDy=0;entryX=0.5;entryY=1;entryDx=0;entryDy=0;fontSize=40;strokeWidth=3;" edge="1" parent="1" source="Ep_Ha3QmBGwPROYHMwhs-2" target="Ep_Ha3QmBGwPROYHMwhs-29">
          <mxGeometry relative="1" as="geometry" />
        </mxCell>
        <mxCell id="Ep_Ha3QmBGwPROYHMwhs-2" value="x&lt;sub style=&quot;font-size: 40px;&quot;&gt;1&lt;/sub&gt;" style="ellipse;whiteSpace=wrap;html=1;aspect=fixed;fontSize=40;fontStyle=1;strokeWidth=3;" vertex="1" parent="1">
          <mxGeometry x="1180" y="2410" width="80" height="80" as="geometry" />
        </mxCell>
        <mxCell id="Ep_Ha3QmBGwPROYHMwhs-53" style="edgeStyle=none;rounded=0;orthogonalLoop=1;jettySize=auto;html=1;exitX=0.5;exitY=0;exitDx=0;exitDy=0;entryX=0.5;entryY=1;entryDx=0;entryDy=0;fontSize=40;strokeWidth=3;" edge="1" parent="1" source="Ep_Ha3QmBGwPROYHMwhs-4" target="Ep_Ha3QmBGwPROYHMwhs-30">
          <mxGeometry relative="1" as="geometry" />
        </mxCell>
        <mxCell id="Ep_Ha3QmBGwPROYHMwhs-4" value="x&lt;span style=&quot;font-size: 40px;&quot;&gt;&lt;sub style=&quot;font-size: 40px;&quot;&gt;2&lt;/sub&gt;&lt;/span&gt;" style="ellipse;whiteSpace=wrap;html=1;aspect=fixed;fontSize=40;fontStyle=1;strokeWidth=3;" vertex="1" parent="1">
          <mxGeometry x="1400" y="2410" width="80" height="80" as="geometry" />
        </mxCell>
        <mxCell id="Ep_Ha3QmBGwPROYHMwhs-54" style="edgeStyle=none;rounded=0;orthogonalLoop=1;jettySize=auto;html=1;exitX=0.5;exitY=0;exitDx=0;exitDy=0;entryX=0.5;entryY=1;entryDx=0;entryDy=0;fontSize=40;strokeWidth=3;" edge="1" parent="1" source="Ep_Ha3QmBGwPROYHMwhs-5" target="Ep_Ha3QmBGwPROYHMwhs-31">
          <mxGeometry relative="1" as="geometry" />
        </mxCell>
        <mxCell id="Ep_Ha3QmBGwPROYHMwhs-5" value="x&lt;span style=&quot;font-size: 40px;&quot;&gt;&lt;sub style=&quot;font-size: 40px;&quot;&gt;n&lt;/sub&gt;&lt;/span&gt;" style="ellipse;whiteSpace=wrap;html=1;aspect=fixed;fontSize=40;fontStyle=1;strokeWidth=3;" vertex="1" parent="1">
          <mxGeometry x="1810" y="2410" width="80" height="80" as="geometry" />
        </mxCell>
        <mxCell id="Ep_Ha3QmBGwPROYHMwhs-7" value="v&lt;sub style=&quot;font-size: 40px;&quot;&gt;a&lt;/sub&gt;" style="rounded=0;whiteSpace=wrap;html=1;fontSize=40;rotation=0;fontStyle=1;strokeWidth=3;" vertex="1" parent="1">
          <mxGeometry x="1190" y="2250" width="60" height="90" as="geometry" />
        </mxCell>
        <mxCell id="Ep_Ha3QmBGwPROYHMwhs-9" value="v&lt;sub style=&quot;font-size: 40px;&quot;&gt;a&lt;/sub&gt;" style="rounded=0;whiteSpace=wrap;html=1;fontSize=40;rotation=0;fontStyle=1;strokeWidth=3;" vertex="1" parent="1">
          <mxGeometry x="1820" y="2250" width="60" height="90" as="geometry" />
        </mxCell>
        <mxCell id="Ep_Ha3QmBGwPROYHMwhs-10" value="v&lt;sub style=&quot;font-size: 40px;&quot;&gt;a&lt;/sub&gt;" style="rounded=0;whiteSpace=wrap;html=1;fontSize=40;rotation=0;fontStyle=1;strokeWidth=3;" vertex="1" parent="1">
          <mxGeometry x="1410" y="2250" width="60" height="90" as="geometry" />
        </mxCell>
        <mxCell id="Ep_Ha3QmBGwPROYHMwhs-11" value="e&lt;sub style=&quot;font-size: 40px;&quot;&gt;2&lt;/sub&gt;" style="rounded=0;whiteSpace=wrap;html=1;fontSize=40;fontStyle=1;strokeWidth=3;" vertex="1" parent="1">
          <mxGeometry x="1410" y="2120" width="60" height="110" as="geometry" />
        </mxCell>
        <mxCell id="Ep_Ha3QmBGwPROYHMwhs-12" value="e&lt;sub style=&quot;font-size: 40px;&quot;&gt;1&lt;/sub&gt;" style="rounded=0;whiteSpace=wrap;html=1;fontSize=40;fontStyle=1;strokeWidth=3;" vertex="1" parent="1">
          <mxGeometry x="1190" y="2120" width="60" height="110" as="geometry" />
        </mxCell>
        <mxCell id="Ep_Ha3QmBGwPROYHMwhs-13" value="e&lt;sub style=&quot;font-size: 40px;&quot;&gt;n&lt;/sub&gt;" style="rounded=0;whiteSpace=wrap;html=1;fontSize=40;fontStyle=1;strokeWidth=3;" vertex="1" parent="1">
          <mxGeometry x="1820" y="2120" width="60" height="110" as="geometry" />
        </mxCell>
        <mxCell id="Ep_Ha3QmBGwPROYHMwhs-36" style="edgeStyle=orthogonalEdgeStyle;rounded=0;orthogonalLoop=1;jettySize=auto;html=1;exitX=1;exitY=0.5;exitDx=0;exitDy=0;entryX=0;entryY=0.5;entryDx=0;entryDy=0;fontSize=40;strokeWidth=3;" edge="1" parent="1" source="Ep_Ha3QmBGwPROYHMwhs-14" target="Ep_Ha3QmBGwPROYHMwhs-15">
          <mxGeometry relative="1" as="geometry" />
        </mxCell>
        <mxCell id="Ep_Ha3QmBGwPROYHMwhs-14" value="LSTM" style="rounded=0;whiteSpace=wrap;html=1;fontSize=40;fontStyle=1;strokeWidth=3;" vertex="1" parent="1">
          <mxGeometry x="1230" y="1930" width="180" height="90" as="geometry" />
        </mxCell>
        <mxCell id="Ep_Ha3QmBGwPROYHMwhs-37" style="edgeStyle=orthogonalEdgeStyle;rounded=0;orthogonalLoop=1;jettySize=auto;html=1;entryX=0;entryY=0.5;entryDx=0;entryDy=0;fontSize=40;strokeWidth=3;" edge="1" parent="1" target="Ep_Ha3QmBGwPROYHMwhs-16">
          <mxGeometry relative="1" as="geometry">
            <mxPoint x="1830" y="1975" as="sourcePoint" />
          </mxGeometry>
        </mxCell>
        <mxCell id="Ep_Ha3QmBGwPROYHMwhs-15" value="LSTM" style="rounded=0;whiteSpace=wrap;html=1;fontSize=40;fontStyle=1;strokeWidth=3;" vertex="1" parent="1">
          <mxGeometry x="1480" y="1930" width="180" height="90" as="geometry" />
        </mxCell>
        <mxCell id="Ep_Ha3QmBGwPROYHMwhs-16" value="LSTM" style="rounded=0;whiteSpace=wrap;html=1;fontSize=40;fontStyle=1;strokeWidth=3;" vertex="1" parent="1">
          <mxGeometry x="1900" y="1930" width="180" height="90" as="geometry" />
        </mxCell>
        <mxCell id="Ep_Ha3QmBGwPROYHMwhs-58" style="edgeStyle=none;rounded=0;orthogonalLoop=1;jettySize=auto;html=1;exitX=0.5;exitY=0;exitDx=0;exitDy=0;entryX=0.5;entryY=1;entryDx=0;entryDy=0;fontSize=40;strokeWidth=3;" edge="1" parent="1" source="Ep_Ha3QmBGwPROYHMwhs-17" target="Ep_Ha3QmBGwPROYHMwhs-55">
          <mxGeometry relative="1" as="geometry" />
        </mxCell>
        <mxCell id="Ep_Ha3QmBGwPROYHMwhs-17" value="LSTM" style="rounded=0;whiteSpace=wrap;html=1;fontSize=40;fontStyle=1;strokeWidth=3;" vertex="1" parent="1">
          <mxGeometry x="1070" y="1750" width="180" height="90" as="geometry" />
        </mxCell>
        <mxCell id="Ep_Ha3QmBGwPROYHMwhs-42" style="edgeStyle=orthogonalEdgeStyle;rounded=0;orthogonalLoop=1;jettySize=auto;html=1;entryX=1;entryY=0.5;entryDx=0;entryDy=0;fontSize=40;exitX=0;exitY=0.5;exitDx=0;exitDy=0;strokeWidth=3;" edge="1" parent="1" source="Ep_Ha3QmBGwPROYHMwhs-18" target="Ep_Ha3QmBGwPROYHMwhs-17">
          <mxGeometry relative="1" as="geometry">
            <mxPoint x="1300" y="1795" as="sourcePoint" />
          </mxGeometry>
        </mxCell>
        <mxCell id="Ep_Ha3QmBGwPROYHMwhs-59" style="edgeStyle=none;rounded=0;orthogonalLoop=1;jettySize=auto;html=1;exitX=0.5;exitY=0;exitDx=0;exitDy=0;entryX=0.5;entryY=1;entryDx=0;entryDy=0;fontSize=40;strokeWidth=3;" edge="1" parent="1" source="Ep_Ha3QmBGwPROYHMwhs-18" target="Ep_Ha3QmBGwPROYHMwhs-56">
          <mxGeometry relative="1" as="geometry" />
        </mxCell>
        <mxCell id="Ep_Ha3QmBGwPROYHMwhs-18" value="LSTM" style="rounded=0;whiteSpace=wrap;html=1;fontSize=40;fontStyle=1;strokeWidth=3;" vertex="1" parent="1">
          <mxGeometry x="1390" y="1750" width="180" height="90" as="geometry" />
        </mxCell>
        <mxCell id="Ep_Ha3QmBGwPROYHMwhs-41" style="edgeStyle=orthogonalEdgeStyle;rounded=0;orthogonalLoop=1;jettySize=auto;html=1;entryX=1;entryY=0.5;entryDx=0;entryDy=0;fontSize=40;strokeWidth=3;" edge="1" parent="1" target="Ep_Ha3QmBGwPROYHMwhs-18">
          <mxGeometry relative="1" as="geometry">
            <mxPoint x="1630" y="1795" as="sourcePoint" />
          </mxGeometry>
        </mxCell>
        <mxCell id="Ep_Ha3QmBGwPROYHMwhs-60" style="edgeStyle=none;rounded=0;orthogonalLoop=1;jettySize=auto;html=1;exitX=0.5;exitY=0;exitDx=0;exitDy=0;entryX=0.5;entryY=1;entryDx=0;entryDy=0;fontSize=40;strokeWidth=3;" edge="1" parent="1" source="Ep_Ha3QmBGwPROYHMwhs-19" target="Ep_Ha3QmBGwPROYHMwhs-57">
          <mxGeometry relative="1" as="geometry" />
        </mxCell>
        <mxCell id="Ep_Ha3QmBGwPROYHMwhs-19" value="LSTM" style="rounded=0;whiteSpace=wrap;html=1;fontSize=40;fontStyle=1;strokeWidth=3;" vertex="1" parent="1">
          <mxGeometry x="1790" y="1750" width="180" height="90" as="geometry" />
        </mxCell>
        <mxCell id="Ep_Ha3QmBGwPROYHMwhs-20" value="v&lt;sub style=&quot;font-size: 40px;&quot;&gt;a&lt;/sub&gt;" style="rounded=0;whiteSpace=wrap;html=1;fontSize=40;rotation=0;fontStyle=1;strokeWidth=3;" vertex="1" parent="1">
          <mxGeometry x="1200" y="1370" width="60" height="90" as="geometry" />
        </mxCell>
        <mxCell id="Ep_Ha3QmBGwPROYHMwhs-21" value="v&lt;sub style=&quot;font-size: 40px;&quot;&gt;a&lt;/sub&gt;" style="rounded=0;whiteSpace=wrap;html=1;fontSize=40;rotation=0;fontStyle=1;strokeWidth=3;" vertex="1" parent="1">
          <mxGeometry x="1830" y="1370" width="60" height="90" as="geometry" />
        </mxCell>
        <mxCell id="Ep_Ha3QmBGwPROYHMwhs-22" value="v&lt;sub style=&quot;font-size: 40px;&quot;&gt;a&lt;/sub&gt;" style="rounded=0;whiteSpace=wrap;html=1;fontSize=40;rotation=0;fontStyle=1;strokeWidth=3;" vertex="1" parent="1">
          <mxGeometry x="1420" y="1370" width="60" height="90" as="geometry" />
        </mxCell>
        <mxCell id="Ep_Ha3QmBGwPROYHMwhs-23" value="h&lt;sub style=&quot;font-size: 40px;&quot;&gt;2&lt;/sub&gt;" style="rounded=0;whiteSpace=wrap;html=1;fontSize=40;fontStyle=1;strokeWidth=3;" vertex="1" parent="1">
          <mxGeometry x="1420" y="1470" width="60" height="110" as="geometry" />
        </mxCell>
        <mxCell id="Ep_Ha3QmBGwPROYHMwhs-24" value="&lt;sub style=&quot;font-size: 40px;&quot;&gt;&lt;span style=&quot;font-size: 40px;&quot;&gt;h&lt;/span&gt;1&lt;/sub&gt;" style="rounded=0;whiteSpace=wrap;html=1;fontSize=40;fontStyle=1;strokeWidth=3;" vertex="1" parent="1">
          <mxGeometry x="1200" y="1470" width="60" height="110" as="geometry" />
        </mxCell>
        <mxCell id="Ep_Ha3QmBGwPROYHMwhs-25" value="h&lt;sub style=&quot;font-size: 40px;&quot;&gt;n&lt;/sub&gt;" style="rounded=0;whiteSpace=wrap;html=1;fontSize=40;fontStyle=1;strokeWidth=3;" vertex="1" parent="1">
          <mxGeometry x="1830" y="1470" width="60" height="110" as="geometry" />
        </mxCell>
        <mxCell id="Ep_Ha3QmBGwPROYHMwhs-64" style="edgeStyle=orthogonalEdgeStyle;rounded=0;orthogonalLoop=1;jettySize=auto;html=1;exitX=1;exitY=0.5;exitDx=0;exitDy=0;entryX=0.5;entryY=0;entryDx=0;entryDy=0;entryPerimeter=0;fontSize=40;strokeWidth=3;" edge="1" parent="1" source="Ep_Ha3QmBGwPROYHMwhs-26" target="Ep_Ha3QmBGwPROYHMwhs-27">
          <mxGeometry relative="1" as="geometry" />
        </mxCell>
        <mxCell id="Ep_Ha3QmBGwPROYHMwhs-26" value="&lt;font style=&quot;font-size: 40px;&quot;&gt;attention&lt;/font&gt;" style="rounded=0;whiteSpace=wrap;html=1;fontSize=40;fontStyle=1;strokeWidth=3;" vertex="1" parent="1">
          <mxGeometry x="1520" y="1100" width="200" height="90" as="geometry" />
        </mxCell>
        <mxCell id="Ep_Ha3QmBGwPROYHMwhs-74" style="edgeStyle=none;rounded=0;orthogonalLoop=1;jettySize=auto;html=1;exitX=1;exitY=0.5;exitDx=0;exitDy=0;exitPerimeter=0;fontSize=40;strokeWidth=3;" edge="1" parent="1" source="Ep_Ha3QmBGwPROYHMwhs-27" target="Ep_Ha3QmBGwPROYHMwhs-28">
          <mxGeometry relative="1" as="geometry" />
        </mxCell>
        <mxCell id="Ep_Ha3QmBGwPROYHMwhs-27" value="" style="verticalLabelPosition=bottom;verticalAlign=top;html=1;shape=mxgraph.flowchart.or;fontSize=40;strokeWidth=3;" vertex="1" parent="1">
          <mxGeometry x="2200" y="1505" width="60" height="60" as="geometry" />
        </mxCell>
        <mxCell id="Ep_Ha3QmBGwPROYHMwhs-28" value="" style="rounded=0;whiteSpace=wrap;html=1;fontSize=40;strokeWidth=3;" vertex="1" parent="1">
          <mxGeometry x="2380" y="1450" width="70" height="170" as="geometry" />
        </mxCell>
        <mxCell id="Ep_Ha3QmBGwPROYHMwhs-34" style="rounded=0;orthogonalLoop=1;jettySize=auto;html=1;exitX=0.5;exitY=0;exitDx=0;exitDy=0;entryX=0.5;entryY=1;entryDx=0;entryDy=0;fontSize=40;strokeWidth=3;" edge="1" parent="1" source="Ep_Ha3QmBGwPROYHMwhs-29" target="Ep_Ha3QmBGwPROYHMwhs-14">
          <mxGeometry relative="1" as="geometry" />
        </mxCell>
        <mxCell id="Ep_Ha3QmBGwPROYHMwhs-35" style="rounded=0;orthogonalLoop=1;jettySize=auto;html=1;exitX=0.5;exitY=0;exitDx=0;exitDy=0;entryX=0.5;entryY=1;entryDx=0;entryDy=0;fontSize=40;strokeWidth=3;" edge="1" parent="1" source="Ep_Ha3QmBGwPROYHMwhs-29" target="Ep_Ha3QmBGwPROYHMwhs-17">
          <mxGeometry relative="1" as="geometry" />
        </mxCell>
        <mxCell id="Ep_Ha3QmBGwPROYHMwhs-29" value="" style="rounded=0;whiteSpace=wrap;html=1;fontSize=40;textOpacity=0;fillColor=none;dashed=1;strokeWidth=3;strokeColor=#009900;" vertex="1" parent="1">
          <mxGeometry x="1170" y="2100" width="100" height="260" as="geometry" />
        </mxCell>
        <mxCell id="Ep_Ha3QmBGwPROYHMwhs-38" style="rounded=0;orthogonalLoop=1;jettySize=auto;html=1;exitX=0.5;exitY=0;exitDx=0;exitDy=0;entryX=0.5;entryY=1;entryDx=0;entryDy=0;fontSize=40;strokeWidth=3;" edge="1" parent="1" source="Ep_Ha3QmBGwPROYHMwhs-30" target="Ep_Ha3QmBGwPROYHMwhs-15">
          <mxGeometry relative="1" as="geometry" />
        </mxCell>
        <mxCell id="Ep_Ha3QmBGwPROYHMwhs-71" style="rounded=0;orthogonalLoop=1;jettySize=auto;html=1;exitX=0.5;exitY=0;exitDx=0;exitDy=0;entryX=0.5;entryY=1;entryDx=0;entryDy=0;fontSize=40;strokeWidth=3;" edge="1" parent="1" source="Ep_Ha3QmBGwPROYHMwhs-30" target="Ep_Ha3QmBGwPROYHMwhs-18">
          <mxGeometry relative="1" as="geometry" />
        </mxCell>
        <mxCell id="Ep_Ha3QmBGwPROYHMwhs-30" value="" style="rounded=0;whiteSpace=wrap;html=1;fontSize=40;textOpacity=0;fillColor=none;dashed=1;strokeWidth=3;strokeColor=#009900;" vertex="1" parent="1">
          <mxGeometry x="1390" y="2100" width="100" height="260" as="geometry" />
        </mxCell>
        <mxCell id="Ep_Ha3QmBGwPROYHMwhs-39" style="rounded=0;orthogonalLoop=1;jettySize=auto;html=1;exitX=0.5;exitY=0;exitDx=0;exitDy=0;entryX=0.5;entryY=1;entryDx=0;entryDy=0;fontSize=40;strokeWidth=3;" edge="1" parent="1" source="Ep_Ha3QmBGwPROYHMwhs-31" target="Ep_Ha3QmBGwPROYHMwhs-16">
          <mxGeometry relative="1" as="geometry" />
        </mxCell>
        <mxCell id="Ep_Ha3QmBGwPROYHMwhs-40" style="rounded=0;orthogonalLoop=1;jettySize=auto;html=1;exitX=0.5;exitY=0;exitDx=0;exitDy=0;entryX=0.5;entryY=1;entryDx=0;entryDy=0;fontSize=40;strokeWidth=3;" edge="1" parent="1" source="Ep_Ha3QmBGwPROYHMwhs-31" target="Ep_Ha3QmBGwPROYHMwhs-19">
          <mxGeometry relative="1" as="geometry" />
        </mxCell>
        <mxCell id="Ep_Ha3QmBGwPROYHMwhs-31" value="" style="rounded=0;whiteSpace=wrap;html=1;fontSize=40;textOpacity=0;fillColor=none;dashed=1;strokeWidth=3;strokeColor=#009900;" vertex="1" parent="1">
          <mxGeometry x="1800" y="2100" width="100" height="260" as="geometry" />
        </mxCell>
        <mxCell id="Ep_Ha3QmBGwPROYHMwhs-48" value="" style="endArrow=classic;html=1;fontSize=40;entryX=1;entryY=0.5;entryDx=0;entryDy=0;strokeWidth=3;" edge="1" parent="1" target="Ep_Ha3QmBGwPROYHMwhs-19">
          <mxGeometry width="50" height="50" relative="1" as="geometry">
            <mxPoint x="2040" y="1795" as="sourcePoint" />
            <mxPoint x="1750" y="2020" as="targetPoint" />
          </mxGeometry>
        </mxCell>
        <mxCell id="Ep_Ha3QmBGwPROYHMwhs-50" value="" style="endArrow=classic;html=1;fontSize=40;entryX=0;entryY=0.5;entryDx=0;entryDy=0;strokeWidth=3;" edge="1" parent="1" target="Ep_Ha3QmBGwPROYHMwhs-14">
          <mxGeometry width="50" height="50" relative="1" as="geometry">
            <mxPoint x="1130" y="1975" as="sourcePoint" />
            <mxPoint x="1020" y="1990" as="targetPoint" />
          </mxGeometry>
        </mxCell>
        <mxCell id="Ep_Ha3QmBGwPROYHMwhs-61" style="edgeStyle=none;rounded=0;orthogonalLoop=1;jettySize=auto;html=1;exitX=0.5;exitY=0;exitDx=0;exitDy=0;entryX=0.5;entryY=1;entryDx=0;entryDy=0;fontSize=40;strokeWidth=3;" edge="1" parent="1" source="Ep_Ha3QmBGwPROYHMwhs-55" target="Ep_Ha3QmBGwPROYHMwhs-26">
          <mxGeometry relative="1" as="geometry" />
        </mxCell>
        <mxCell id="Ep_Ha3QmBGwPROYHMwhs-55" value="" style="rounded=0;whiteSpace=wrap;html=1;dashed=1;fontSize=40;strokeWidth=3;fillColor=none;" vertex="1" parent="1">
          <mxGeometry x="1180" y="1350" width="100" height="250" as="geometry" />
        </mxCell>
        <mxCell id="Ep_Ha3QmBGwPROYHMwhs-62" style="edgeStyle=none;rounded=0;orthogonalLoop=1;jettySize=auto;html=1;exitX=0.5;exitY=0;exitDx=0;exitDy=0;fontSize=40;strokeWidth=3;" edge="1" parent="1" source="Ep_Ha3QmBGwPROYHMwhs-56">
          <mxGeometry relative="1" as="geometry">
            <mxPoint x="1620" y="1190" as="targetPoint" />
          </mxGeometry>
        </mxCell>
        <mxCell id="Ep_Ha3QmBGwPROYHMwhs-56" value="" style="rounded=0;whiteSpace=wrap;html=1;dashed=1;fontSize=40;strokeWidth=3;fillColor=none;" vertex="1" parent="1">
          <mxGeometry x="1400" y="1350" width="100" height="250" as="geometry" />
        </mxCell>
        <mxCell id="Ep_Ha3QmBGwPROYHMwhs-63" style="edgeStyle=none;rounded=0;orthogonalLoop=1;jettySize=auto;html=1;exitX=0.5;exitY=0;exitDx=0;exitDy=0;fontSize=40;strokeWidth=3;" edge="1" parent="1" source="Ep_Ha3QmBGwPROYHMwhs-57">
          <mxGeometry relative="1" as="geometry">
            <mxPoint x="1620" y="1190" as="targetPoint" />
          </mxGeometry>
        </mxCell>
        <mxCell id="Ep_Ha3QmBGwPROYHMwhs-57" value="" style="rounded=0;whiteSpace=wrap;html=1;dashed=1;fontSize=40;strokeWidth=3;fillColor=none;" vertex="1" parent="1">
          <mxGeometry x="1810" y="1350" width="100" height="250" as="geometry" />
        </mxCell>
        <mxCell id="Ep_Ha3QmBGwPROYHMwhs-66" style="edgeStyle=orthogonalEdgeStyle;rounded=0;orthogonalLoop=1;jettySize=auto;html=1;exitX=1;exitY=0.5;exitDx=0;exitDy=0;entryX=0;entryY=0.5;entryDx=0;entryDy=0;entryPerimeter=0;fontSize=40;strokeWidth=3;" edge="1" parent="1" source="Ep_Ha3QmBGwPROYHMwhs-65" target="Ep_Ha3QmBGwPROYHMwhs-27">
          <mxGeometry relative="1" as="geometry" />
        </mxCell>
        <mxCell id="Ep_Ha3QmBGwPROYHMwhs-65" value="" style="rounded=0;whiteSpace=wrap;html=1;dashed=1;fontSize=40;strokeWidth=3;fillColor=none;strokeColor=#007FFF;" vertex="1" parent="1">
          <mxGeometry x="1160" y="1470" width="780" height="130" as="geometry" />
        </mxCell>
        <mxCell id="Ep_Ha3QmBGwPROYHMwhs-67" value="" style="endArrow=classic;html=1;fontSize=40;exitX=0;exitY=0.5;exitDx=0;exitDy=0;strokeWidth=3;" edge="1" parent="1" source="Ep_Ha3QmBGwPROYHMwhs-19">
          <mxGeometry width="50" height="50" relative="1" as="geometry">
            <mxPoint x="1700" y="2070" as="sourcePoint" />
            <mxPoint x="1720" y="1795" as="targetPoint" />
          </mxGeometry>
        </mxCell>
        <mxCell id="Ep_Ha3QmBGwPROYHMwhs-68" value="" style="endArrow=none;dashed=1;html=1;fontSize=40;strokeWidth=3;" edge="1" parent="1">
          <mxGeometry width="50" height="50" relative="1" as="geometry">
            <mxPoint x="1710" y="1800" as="sourcePoint" />
            <mxPoint x="1650" y="1800" as="targetPoint" />
          </mxGeometry>
        </mxCell>
        <mxCell id="Ep_Ha3QmBGwPROYHMwhs-69" value="" style="endArrow=none;dashed=1;html=1;fontSize=40;strokeWidth=3;" edge="1" parent="1">
          <mxGeometry width="50" height="50" relative="1" as="geometry">
            <mxPoint x="1800" y="1974" as="sourcePoint" />
            <mxPoint x="1740" y="1974" as="targetPoint" />
          </mxGeometry>
        </mxCell>
        <mxCell id="Ep_Ha3QmBGwPROYHMwhs-70" value="" style="endArrow=classic;html=1;fontSize=40;strokeWidth=3;exitX=1;exitY=0.5;exitDx=0;exitDy=0;" edge="1" parent="1" source="Ep_Ha3QmBGwPROYHMwhs-15">
          <mxGeometry width="50" height="50" relative="1" as="geometry">
            <mxPoint x="1700" y="2070" as="sourcePoint" />
            <mxPoint x="1710" y="1975" as="targetPoint" />
          </mxGeometry>
        </mxCell>
        <mxCell id="Ep_Ha3QmBGwPROYHMwhs-72" value="" style="endArrow=none;dashed=1;html=1;dashPattern=1 3;strokeWidth=7;fontSize=40;" edge="1" parent="1">
          <mxGeometry width="50" height="50" relative="1" as="geometry">
            <mxPoint x="1570" y="2230" as="sourcePoint" />
            <mxPoint x="1730" y="2230" as="targetPoint" />
          </mxGeometry>
        </mxCell>
        <mxCell id="Ep_Ha3QmBGwPROYHMwhs-73" value="" style="endArrow=none;dashed=1;html=1;dashPattern=1 3;strokeWidth=7;fontSize=40;" edge="1" parent="1">
          <mxGeometry width="50" height="50" relative="1" as="geometry">
            <mxPoint x="1560" y="1458" as="sourcePoint" />
            <mxPoint x="1720" y="1458" as="targetPoint" />
          </mxGeometry>
        </mxCell>
        <mxCell id="Ep_Ha3QmBGwPROYHMwhs-75" value="Hidden" style="text;html=1;align=center;verticalAlign=middle;resizable=0;points=[];autosize=1;strokeColor=none;fontSize=40;" vertex="1" parent="1">
          <mxGeometry x="830" y="1510" width="140" height="50" as="geometry" />
        </mxCell>
        <mxCell id="Ep_Ha3QmBGwPROYHMwhs-76" value="Aspect&lt;br&gt;Representation" style="text;html=1;align=center;verticalAlign=middle;resizable=0;points=[];autosize=1;strokeColor=none;fontSize=40;" vertex="1" parent="1">
          <mxGeometry x="760" y="1365" width="290" height="100" as="geometry" />
        </mxCell>
        <mxCell id="Ep_Ha3QmBGwPROYHMwhs-77" value="Aspect&lt;br&gt;Representation" style="text;html=1;align=center;verticalAlign=middle;resizable=0;points=[];autosize=1;strokeColor=none;fontSize=40;" vertex="1" parent="1">
          <mxGeometry x="780" y="2260" width="290" height="100" as="geometry" />
        </mxCell>
        <mxCell id="Ep_Ha3QmBGwPROYHMwhs-78" value="Word&lt;br&gt;Representation" style="text;html=1;align=center;verticalAlign=middle;resizable=0;points=[];autosize=1;strokeColor=none;fontSize=40;" vertex="1" parent="1">
          <mxGeometry x="800" y="2110" width="290" height="100" as="geometry" />
        </mxCell>
      </root>
    </mxGraphModel>
  </diagram>
</mxfile>
